<?xml version="1.0" standalone="no"?>
<!DOCTYPE svg PUBLIC "-//W3C//DTD SVG 20010904//EN"
 "http://www.w3.org/TR/2001/REC-SVG-20010904/DTD/svg10.dtd">
<svg version="1.0" xmlns="http://www.w3.org/2000/svg"
 width="500.000000pt" height="500.000000pt" viewBox="0 0 500.000000 500.000000"
 preserveAspectRatio="xMidYMid meet">
<metadata>
Created by potrace 1.11, written by Peter Selinger 2001-2013
</metadata>
<g transform="translate(0.000000,500.000000) scale(0.100000,-0.100000)"
fill="#000000" stroke="none">
<path d="M420 3443 c-1 -5 -72 -471 -159 -1037 l-157 -1028 2237 4 c1231 2
2241 7 2246 11 7 7 312 1981 313 2023 0 21 -3 21 -382 27 -529 9 -4098 9
-4098 0z m2365 -463 c39 -6 92 -15 119 -21 l48 -12 -6 -61 c-13 -116 15 -104
-249 -108 -128 -2 -240 -8 -250 -12 -10 -5 -24 -21 -32 -37 -16 -29 -20 -116
-7 -135 10 -16 51 -35 198 -93 208 -82 252 -119 276 -235 17 -80 -2 -201 -44
-286 -40 -79 -95 -120 -189 -141 -92 -20 -377 -18 -499 4 -51 10 -95 19 -97
20 -3 3 13 115 22 155 5 22 6 22 228 23 145 0 234 4 256 12 44 16 69 51 77
109 6 40 3 50 -17 70 -13 13 -89 50 -169 82 -200 82 -250 116 -286 201 -39 92
-9 288 56 367 37 44 115 84 190 97 76 12 290 13 375 1z m-1473 -9 c59 -4 111
-10 114 -14 4 -4 1 -44 -7 -89 l-15 -83 -235 -5 c-175 -4 -240 -8 -252 -18
-18 -15 -23 -36 -41 -157 l-13 -85 223 0 224 0 -6 -27 c-2 -16 -8 -55 -12 -88
l-7 -60 -222 -3 c-256 -3 -224 14 -242 -125 -16 -117 -15 -143 11 -161 19 -13
60 -16 247 -16 l224 0 -7 -87 c-3 -48 -10 -91 -15 -96 -4 -4 -122 -11 -262
-14 -218 -5 -262 -4 -310 10 -67 20 -103 47 -128 95 -35 70 -34 102 19 482 42
305 55 374 76 418 29 59 74 98 136 117 49 15 323 19 500 6z m2531 -443 c26
-244 47 -456 47 -471 0 -23 4 -28 20 -25 16 2 28 22 49 83 21 58 270 698 328
843 4 9 41 12 138 12 l133 0 -233 -542 c-167 -389 -241 -549 -260 -565 -24
-22 -35 -23 -171 -23 -141 0 -146 1 -169 25 -14 13 -25 30 -25 38 0 12 -143
964 -155 1035 l-6 32 128 0 129 0 47 -442z"/>
</g>
</svg>
